<?xml version="1.0" standalone="no"?>
<!DOCTYPE svg PUBLIC "-//W3C//DTD SVG 20010904//EN"
 "http://www.w3.org/TR/2001/REC-SVG-20010904/DTD/svg10.dtd">
<svg version="1.0" xmlns="http://www.w3.org/2000/svg"
 width="735.000000pt" height="490.000000pt" viewBox="0 0 735.000000 490.000000"
 preserveAspectRatio="xMidYMid meet">

<g transform="translate(0.000000,490.000000) scale(0.100000,-0.100000)"
fill="#000000" stroke="none">
<path d="M2323 3124 c-96 -48 -98 -210 -4 -259 17 -8 55 -15 85 -15 52 0 55 1
65 31 17 48 15 49 -47 49 -32 0 -63 5 -70 12 -7 7 -12 31 -12 55 0 32 5 45 19
53 11 5 76 10 145 10 l125 0 -64 -182 c-35 -101 -100 -286 -144 -412 -45 -126
-81 -235 -81 -241 0 -7 18 -19 40 -28 40 -15 41 -15 49 6 5 12 32 90 61 172
29 83 54 152 56 154 2 2 30 -12 63 -32 32 -21 62 -37 65 -37 3 0 6 31 6 69 l0
69 -45 26 c-49 29 -51 33 -33 71 l11 25 499 0 c274 0 498 -1 498 -2 0 -2 -27
-68 -61 -148 -88 -210 -100 -253 -101 -345 -2 -169 72 -311 203 -395 139 -90
358 -98 499 -19 l40 23 0 83 0 83 -46 -35 c-104 -80 -277 -98 -383 -40 -90 49
-143 126 -160 234 -23 141 31 274 137 342 25 16 49 29 53 29 3 0 26 -73 49
-162 24 -90 44 -164 45 -165 0 -1 20 3 43 9 32 8 41 15 38 27 -5 15 -35 126
-129 481 l-45 165 37 5 c20 3 42 9 49 13 19 13 15 65 -7 77 -11 6 -91 10 -189
10 -151 0 -171 -2 -185 -18 -44 -49 -7 -80 100 -84 l81 -3 -15 -37 -15 -38
-504 0 -504 0 11 28 c6 15 33 89 59 165 l49 137 -202 0 c-165 0 -208 -3 -234
-16z m1431 -429 c6 -28 3 -31 -34 -47 -22 -9 -40 -16 -40 -15 0 5 42 113 47
121 7 10 17 -12 27 -59z"/>
<path d="M2303 2679 c-163 -27 -306 -153 -354 -311 -28 -91 -23 -244 9 -328
44 -110 143 -210 251 -251 124 -46 285 -42 398 10 l63 30 0 80 c0 45 -2 81 -5
81 -3 0 -24 -14 -47 -30 -23 -17 -73 -40 -111 -52 -172 -52 -323 9 -403 162
-29 56 -32 210 -5 281 41 108 137 185 247 196 55 6 57 7 75 47 9 23 21 53 24
69 7 27 7 27 -41 26 -27 -1 -72 -5 -101 -10z"/>
<path d="M3880 2684 c0 -5 8 -36 18 -69 l18 -60 60 -7 c65 -7 119 -27 173 -64
20 -13 39 -24 43 -24 5 0 8 31 8 69 0 68 -1 70 -34 90 -19 12 -59 30 -90 41
-62 21 -196 38 -196 24z"/>
<path d="M4350 2224 l0 -444 230 0 230 0 0 65 0 65 -160 0 -160 0 -2 378 -3
377 -67 2 -68 2 0 -445z"/>
<path d="M4937 2664 c-4 -4 -7 -205 -7 -446 l0 -438 248 0 249 0 -1 63 -2 62
-177 3 -177 2 0 140 0 140 178 2 177 3 0 60 -1 60 -174 5 -175 5 -3 107 -3
108 178 2 178 3 0 60 0 60 -241 3 c-132 1 -243 -1 -247 -4z"/>
<path d="M2756 2648 c4 -7 70 -113 146 -236 l138 -222 0 -205 0 -205 75 0 75
0 0 205 0 205 71 112 c38 62 104 165 144 228 41 63 75 118 75 123 0 4 -31 7
-69 7 l-69 0 -100 -157 c-55 -87 -105 -169 -112 -182 -12 -23 -12 -23 -39 25
-15 27 -64 109 -110 182 l-82 132 -75 0 c-57 0 -73 -3 -68 -12z"/>
</g>
</svg>
